<?xml version="1.0" encoding="UTF-8" standalone="no"?>
<svg
   xmlns:dc="http://purl.org/dc/elements/1.1/"
   xmlns:cc="http://creativecommons.org/ns#"
   xmlns:rdf="http://www.w3.org/1999/02/22-rdf-syntax-ns#"
   xmlns:svg="http://www.w3.org/2000/svg"
   xmlns="http://www.w3.org/2000/svg"
   xmlns:sodipodi="http://sodipodi.sourceforge.net/DTD/sodipodi-0.dtd"
   xmlns:inkscape="http://www.inkscape.org/namespaces/inkscape"
   width="33"
   height="34"
   viewBox="0 0 33 34"
   version="1.1"
   id="svg10"
   sodipodi:docname="mashuptemplate222.svg"
   inkscape:version="0.92.4 (5da689c313, 2019-01-14)">
  <metadata
     id="metadata16">
    <rdf:RDF>
      <cc:Work
         rdf:about="">
        <dc:format>image/svg+xml</dc:format>
        <dc:type
           rdf:resource="http://purl.org/dc/dcmitype/StillImage" />
        <dc:title />
      </cc:Work>
    </rdf:RDF>
  </metadata>
  <defs
     id="defs14" />
  <sodipodi:namedview
     pagecolor="#ffffff"
     bordercolor="#666666"
     borderopacity="1"
     objecttolerance="10"
     gridtolerance="10"
     guidetolerance="10"
     inkscape:pageopacity="0"
     inkscape:pageshadow="2"
     inkscape:window-width="1366"
     inkscape:window-height="705"
     id="namedview12"
     showgrid="false"
     inkscape:zoom="6.9411765"
     inkscape:cx="37.091909"
     inkscape:cy="22.527517"
     inkscape:window-x="-8"
     inkscape:window-y="-8"
     inkscape:window-maximized="1"
     inkscape:current-layer="svg10" />
  <g
     id="g218"
     transform="matrix(0.0292434,0,0,0.02992687,-27.371968,-22.52775)">
    <path
       style="fill:#000000;stroke:none;stroke-width:0.1"
       id="path114"
       d="m 1475.5,769.7 c -12.3,0.5 -41.6,3.4 -55.1,5.3 -138.5,20.2 -263.2,90.9 -352.2,199.6 -63.6,77.8 -105.1,172.6 -119.2,272.4 -6.7,47.3 -7.2,99.5 -1.4,146.5 10.6,86.2 41.9,170.1 90.4,242.5 33.6,50.2 79.5,98.6 128.6,135.6 58.5,44 126.7,76.5 198.1,94.3 20.2,5 51.2,10.7 68.8,12.6 3.3,0.4 9.6,1.1 14,1.6 13.5,1.6 73.3,2.3 90.5,1 123.2,-9.3 235.9,-56 327.7,-135.8 16.1,-14 45.6,-43.9 59.4,-60.3 125.8,-148.8 164.4,-350.7 102.5,-535.5 -36.3,-108.1 -102.9,-200.7 -193.8,-269.1 -82.6,-62.1 -179.5,-99.3 -283.8,-108.9 -16.3,-1.5 -58.4,-2.5 -74.5,-1.8 z m 56,48.3 c 99.6,6.4 194.1,41.2 273,100.5 108.2,81.4 179.4,200.8 198.9,333.5 4.9,33.5 6.6,85.3 3.7,116 -10.2,109.4 -51.1,207.2 -120.9,288.7 -7.6,8.9 -8.9,10 -10.6,9.1 -3.8,-2 -48.3,-47.3 -57.7,-58.8 -42.2,-51 -71.5,-103.4 -90.9,-162.2 -10.5,-31.6 -10.5,-41.8 -0.5,-61.8 15.1,-30.1 28.4,-76.7 34.2,-120 2.6,-19.2 2.6,-71.6 0,-87.5 -8.6,-53.8 -28.3,-95.2 -61.6,-129.8 -30.1,-31.3 -74.5,-57.8 -113.6,-68 -18.4,-4.8 -28.5,-6.1 -49,-6 -25.9,0 -46,3.6 -71.1,12.8 -13.5,4.9 -43.3,19.8 -57.9,29 -6.7,4.1 -15.7,8.8 -20.3,10.5 l -8.3,3 -5.9,-3 c -33.5,-16.9 -62.5,-12.1 -74.6,12.5 -1.3,2.8 -3.6,10.3 -4.9,16.7 -3.7,17.5 -5.8,22.3 -12.9,29.4 -5.5,5.5 -8.4,7.2 -30.9,18.2 -28,13.7 -34.6,17.8 -38.9,23.6 -2.5,3.5 -2.9,4.8 -2.6,8.7 0.5,4.4 0.3,4.7 -2.9,6.4 -8.2,4.5 -16.3,17.2 -17.1,27.1 l -0.4,5.1 -5.2,1.8 c -7.1,2.6 -15.5,11.1 -18.7,19 -2.1,5.3 -2.4,7.5 -2.3,20 0,11.7 0.5,15.9 2.8,26 6.6,28.1 15.2,43.1 31.1,54 3,2.1 5.5,3.9 5.5,4.1 0,0.1 -1.6,4.9 -3.6,10.6 -6.4,18.5 -16.1,37.2 -28.9,55.8 -10.4,15.1 -16.1,27.5 -19.8,43.3 -1.7,7.5 -2.1,12.3 -2.1,26.2 0,16.8 1.4,26.6 5.5,41 1.2,4 1.2,4 4,-9.5 6.6,-31.4 17.8,-55.9 31.6,-69.2 l 3.8,-3.7 0.2,12.7 c 0.3,14.8 2.3,29.9 5.8,43.2 2.7,9.9 9.5,25 14,31 l 2.6,3.5 -0.8,-11 c -1.3,-18.2 -0.8,-43 1,-51.8 0.9,-4.4 4.2,-13.6 7.3,-20.5 9.2,-20.5 21.1,-50.7 25.6,-64.8 l 4.2,-13.1 14.1,7.3 c 31.6,16.4 60.7,27.3 89.7,33.5 12.6,2.7 18.3,5.4 23.6,11.4 6.3,7.2 7.7,12.6 7.4,28 -0.7,36.7 -8.5,82.3 -18.2,105.9 -20.3,49.9 -62.5,97.6 -117,132 -22.9,14.6 -40,22.8 -86.1,41.6 l -21.7,8.8 -10.7,-11.4 c -28.4,-30.4 -48.4,-56.4 -67.9,-88.7 -36.9,-61.2 -60.5,-128.9 -69.5,-200.2 -12.3,-97.2 4.5,-197.4 47.9,-286 35.6,-72.5 88.6,-136.4 153.4,-184.8 96,-71.6 215.9,-107.3 335.1,-99.7 z m 38.7,178.9 c 22.2,3.9 38.8,10.1 53.4,20.2 15.1,10.5 25.3,24.7 31,43.4 2.5,8.3 2.8,10.4 2.8,25.5 -0.1,10.9 -0.6,19 -1.6,23.7 -0.8,4 -1.2,7.3 -0.7,7.3 0.4,0 3.4,-2 6.8,-4.5 10.2,-7.7 20.1,-22.9 23.7,-36.7 1,-3.5 2.1,-6.7 2.5,-7.2 0.4,-0.4 2.1,3.5 3.8,8.8 12.1,37.7 8.3,82.2 -10.3,121.9 -2.4,5.4 -4.2,9.7 -3.9,9.7 1.5,0 14.1,-11.1 22.4,-19.7 13.7,-14.4 20.6,-25.3 25.9,-41.1 l 2.9,-8.7 v 8.5 c 0.1,20.9 -4.1,49.7 -10.4,70.3 -9.8,32.5 -23.9,58.2 -44.8,82 l -6,6.8 5.2,-2.1 c 22.9,-9 45.8,-26.1 57.4,-42.9 1.7,-2.5 4.6,-7.3 6.4,-10.6 l 3.3,-6 v 9.3 c 0.1,42.4 -23.7,90.6 -61.6,124.6 -29.3,26.4 -68.3,48.9 -110.7,64.1 -4.8,1.7 -8.4,3.4 -8.1,3.8 1.1,1.1 37,0.8 46.4,-0.3 20.1,-2.5 39.9,-7.9 56.3,-15.4 l 7.8,-3.6 -1.9,2.7 c -8,11 -28.9,31.4 -47.2,46 -37.5,29.7 -98.4,65.3 -150.4,87.8 l -10.9,4.7 -1.8,-2.3 c -11.3,-14.6 -27.9,-41.9 -34,-56 -4,-9.2 -8.4,-22.7 -7.7,-23.4 0.2,-0.3 3.9,1.4 8.2,3.6 4.2,2.3 11.3,5.4 15.6,7 8,2.9 26.6,7.9 29.4,7.9 1,0 -0.8,-2.5 -4.4,-6.1 -15.5,-15.7 -31.7,-47.9 -35.1,-69.8 -2.5,-16.4 3.2,-37.1 12.8,-46.7 9,-9.1 19.3,-9.9 46.3,-4 39.2,8.6 58.1,11.1 85.5,11 17,0 24,-0.4 31,-1.7 26.4,-5.2 44,-14 59.3,-29.4 6.3,-6.4 17.2,-21.1 17.2,-23.3 0,-0.5 -3,1.2 -6.7,3.7 -9.6,6.3 -29.1,15.6 -40.3,19.1 -18.4,5.8 -35.8,8 -50.6,6.2 -9.6,-1.2 -12.1,-1.8 -9.7,-2.7 0.6,-0.2 5.3,-3 10.4,-6.1 10.3,-6.4 24,-19.3 27.8,-26.1 l 2.4,-4.4 -6.4,3.7 c -15.1,8.8 -34.4,16.5 -50.9,20.2 -9.7,2.2 -35.9,2.3 -44,0.2 l -5.5,-1.4 7,-3.6 c 23.5,-12.1 46.3,-31.3 57.7,-48.7 5.5,-8.4 5.9,-10.1 2.2,-7.6 -39.6,25.9 -73.5,42.4 -98.8,48 -26.7,5.9 -58.4,-5.1 -87.3,-30.3 -6,-5.2 -6.3,-5.3 -6.3,-2.9 0,8.6 5.3,25.1 10.6,32.7 1.9,2.7 2.9,5 2.3,5 -3,0 -17.6,-5.8 -27.1,-10.7 -19.8,-10.3 -43.3,-30.7 -58.2,-50.6 -3.2,-4.2 -6.1,-7.7 -6.3,-7.7 -0.8,0 0.7,11.7 2.4,19.5 1.7,8 5.3,16.2 9,20.5 l 2.4,3 -4.3,-1.6 c -12.2,-4.3 -28.9,-15.5 -38.6,-25.9 -9.4,-10 -12.6,-15.2 -12.4,-19.9 0.6,-10.6 4.4,-25.6 7.2,-28.1 1.5,-1.4 4,-0.4 25.1,10.3 47,23.7 84.6,35.9 120.9,39.2 35.2,3.3 63.9,-4.2 122,-31.5 41.1,-19.3 56.6,-25.1 70,-26.2 5.8,-0.4 8.9,-0.2 12.5,1.1 4.7,1.5 4.7,1.5 3.1,-0.3 -2.6,-2.9 -12.6,-7.9 -19.2,-9.6 -7,-1.9 -22.5,-2.1 -31.3,-0.5 -13.2,2.4 -24.9,7.3 -46.8,19.8 -42.2,23.9 -84.1,30.5 -131.8,20.6 -17,-3.6 -28,-7.5 -61,-21.7 -53.7,-23 -69.1,-27.9 -88.5,-28 -12.6,0 -23.9,1.9 -35.5,6 -7.7,2.8 -19.5,8.5 -23.7,11.4 -1.4,1.1 -2.8,1.9 -3.1,1.9 -0.8,0 -2.5,-8.8 -3.2,-17 -0.8,-8.4 0.5,-17.5 3.3,-22.9 2.3,-4.6 9.2,-8.3 14.5,-7.9 2,0.2 3.7,0 3.7,-0.4 0,-3.9 2.6,-17.2 4.1,-21.4 2.2,-5.8 8.9,-13.4 11.8,-13.4 2.1,0 9.1,7.2 11.7,12.1 1,1.9 2.5,6.3 3.5,9.9 l 1.6,6.5 4.2,-4.4 c 9.3,-9.9 8.8,-23.5 -1.3,-37 -3,-4 -3.3,-6.7 -1,-9.9 1.9,-2.8 5.5,-4.6 26.1,-13.2 19.4,-8.2 29.2,-13.5 36.6,-20.1 7.3,-6.5 10.1,-12.2 13,-26.4 4,-19.9 9.8,-28.7 21.1,-32 7.1,-2.1 22.9,-1.5 25.3,0.9 1.4,1.4 -3.2,7.8 -11.7,16 -4.8,4.7 -8.4,8.6 -7.9,8.6 1.8,0 19,-4.3 30.9,-7.6 19.2,-5.5 34.4,-11.6 56.4,-22.8 36.3,-18.6 65.2,-28.4 99.6,-33.9 8,-1.3 34.6,-0.6 45.2,1.2 z M 1215,1244.1 c 0,3.3 -3.8,20.9 -6,28.3 -1.4,4.3 -2.6,6.6 -3.6,6.6 -3.9,0 -14.3,-14.5 -16.9,-23.7 -0.8,-2.9 4.6,-6.5 15.7,-10.4 9.9,-3.4 10.8,-3.5 10.8,-0.8 z m 32,19.8 c -1.2,13.3 -3.8,26.9 -7.5,39.7 -3.2,10.9 -11.3,30.4 -12.7,30.4 -0.6,0 -0.8,-0.6 -0.5,-1.3 5.1,-13.3 13.2,-45.3 17.2,-67.7 1.5,-8.5 3,-16.2 3.3,-17 1.2,-3.2 1.3,4.8 0.2,15.9 z m 425.5,214.9 c -1.1,1.1 -10.1,8.6 -20,16.7 -43.7,36.1 -90.2,77.6 -140.7,125.8 -11.5,11 -18.9,17.4 -19.2,16.6 -0.2,-0.8 -0.7,-2.8 -1.1,-4.4 -1.3,-5.8 -7.8,-22.1 -13.2,-32.9 -2.9,-6 -5.2,-11 -5.1,-11.1 0.2,-0.1 6.4,-2.7 13.8,-5.6 16.3,-6.4 57.1,-26.9 80.5,-40.3 24.1,-13.9 55.2,-33 82.5,-51 12.9,-8.5 23.7,-15.4 24,-15.5 0.2,-0.1 -0.4,0.7 -1.5,1.7 z M 1412,1540 c 8.1,13.5 18.1,27.5 26.1,36.9 l 6.4,7.3 -13,13.3 c -7.1,7.3 -16.1,17.1 -20,21.8 -3.8,4.7 -7.1,8.4 -7.2,8.3 -0.1,-0.1 -2.5,-21.1 -5.3,-46.6 -5.6,-51.3 -7.8,-71.5 -8.6,-77.5 -0.4,-3.3 0.9,-1.2 7.4,11 4.3,8.2 10.7,19.7 14.2,25.5 z m 48.2,78.1 c 6.6,12.9 10.8,25.2 11.5,32.9 0.5,6 0.3,7.1 -2.6,12.9 -4,7.9 -20.7,32.7 -42.6,63.4 l -17,23.9 -0.5,-50.4 -0.5,-50.3 2.5,-3.5 c 8.6,-12.2 39.6,-39.9 43.4,-38.7 0.5,0.2 3.1,4.6 5.8,9.8 z"
       inkscape:connector-curvature="0" />
    <path
       style="fill:#000000;stroke:none;stroke-width:0.1"
       id="path116"
       d="m 1531.1,1022 c -19.1,9.1 -40.7,32.1 -60.1,64.2 -8.7,14.4 -23.2,36.3 -35.4,53.3 -9.8,13.8 -9.8,14 3.2,10.6 28.6,-7.4 53.6,-25.8 76.6,-56.5 2.9,-3.9 9.6,-13.4 15,-21.1 17.6,-25.5 23.2,-30.3 34.7,-29.2 3.8,0.3 7.8,1.6 12,3.8 6.2,3.3 17.9,13.8 23.2,20.9 6.6,8.7 0.1,-9.1 -7.3,-20 -5.4,-8 -15.1,-17.5 -22.2,-21.8 -8.7,-5.2 -15.6,-7.2 -25,-7.2 -7.2,0 -9.2,0.4 -14.7,3 z"
       inkscape:connector-curvature="0" />
    <path
       style="fill:#000000;stroke:none;stroke-width:0.1"
       id="path118"
       d="m 1553.7,1065.4 c -13.4,3.7 -24,18.1 -22.4,30.1 1.7,12.4 13.6,22.5 26.3,22.5 11.2,-0.1 18.8,-6 25.2,-19.9 6.9,-15 5.1,-25.9 -5.2,-31 -5.9,-2.9 -16.8,-3.7 -23.9,-1.7 z m 15.5,11.8 c 0.4,0.7 0.8,1.6 0.8,2.1 0,1.5 -6.2,4.5 -10.5,5 -2.9,0.4 -6.1,2 -9.6,4.6 -2.9,2.2 -6,4.2 -7,4.4 -1.5,0.4 -1.4,0 0.4,-3.2 3.2,-5.4 11.1,-12.9 14.8,-14 4.1,-1.2 9.9,-0.6 11.1,1.1 z"
       inkscape:connector-curvature="0" />
    <path
       style="fill:#000000;stroke:none;stroke-width:0.1"
       id="path120"
       d="m 1594.8,1095.7 c -2.4,2.8 -3.5,5.3 -7.8,18.4 -6.1,18.7 -12.5,26.8 -23.5,29.9 -9.3,2.6 -17,-1.6 -34.7,-18.7 -10.5,-10.2 -13.3,-12.3 -15.7,-12.3 -6.4,0 -6.5,7.9 -0.4,20.2 15,29.9 54.4,37.2 76.5,14 9.6,-10 14.8,-23.3 14.8,-37.4 0,-8.5 -1.3,-13.4 -4,-14.8 -2.6,-1.4 -3.5,-1.3 -5.2,0.7 z"
       inkscape:connector-curvature="0" />
    <path
       style="fill:#000000;stroke:none;stroke-width:0.1"
       id="path122"
       d="m 1355.5,1132.6 c -17.8,2.9 -34.7,12.7 -46.4,26.9 -4.9,5.9 -5.1,7.1 -1.1,5 6.2,-3.2 20.7,-8.6 29.9,-11.2 13.2,-3.7 27.5,-3.9 33.9,-0.5 6.1,3.2 8.7,9.1 7.7,17.5 -0.8,7.9 -5.5,20.5 -10.5,28.4 -2.1,3.4 -3.5,6.3 -2.9,6.3 1.7,0 9.1,-4.1 15.2,-8.3 11.7,-8.2 18.8,-20.2 19.5,-33.2 0.4,-6.8 0.1,-8.9 -1.8,-13.3 -4.7,-11 -15.4,-17 -31.4,-17.7 -5,-0.2 -10.4,-0.1 -12.1,0.1 z"
       inkscape:connector-curvature="0" />
    <path
       style="fill:#000000;stroke:none;stroke-width:0.1"
       id="path124"
       d="m 1345.9,1162.3 c -10.2,3.5 -20.5,12.1 -27.3,22.8 l -2,3.2 3,-0.7 c 10.2,-2.3 18.8,-3.5 25.1,-3.6 14.7,0 22.3,-3.6 23.7,-11.3 2.1,-11 -7.6,-15.5 -22.5,-10.4 z"
       inkscape:connector-curvature="0" />
  </g>
</svg>
