<svg xmlns="http://www.w3.org/2000/svg" width="33" height="34" viewBox="0 0 33 34">
  <g fill="none" fill-rule="evenodd" stroke="#000" transform="matrix(1 0 0 -1 0 34)">
transform="translate(0.000000,3000.000000) scale(0.100000,-0.100000)"
fill="#000000" stroke="none">
<path d="M14755 22303 c-123 -5 -416 -34 -551 -53 -1385 -202 -2632 -909
-3522 -1996 -636 -778 -1051 -1726 -1192 -2724 -67 -473 -72 -995 -14 -1465
106 -862 419 -1701 904 -2425 336 -502 795 -986 1286 -1356 585 -440 1267
-765 1981 -943 202 -50 512 -107 688 -126 33 -4 96 -11 140 -16 135 -16 733
-23 905 -10 1232 93 2359 560 3277 1358 161 140 456 439 594 603 1258 1488
1644 3507 1025 5355 -363 1081 -1029 2007 -1938 2691 -826 621 -1795 993
-2838 1089 -163 15 -584 25 -745 18z m560 -483 c996 -64 1941 -412 2730 -1005
1082 -814 1794 -2008 1989 -3335 49 -335 66 -853 37 -1160 -102 -1094 -511
-2072 -1209 -2887 -76 -89 -89 -100 -106 -91 -38 20 -483 473 -577 588 -422
510 -715 1034 -909 1622 -105 316 -105 418 -5 618 151 301 284 767 342 1200
26 192 26 716 0 875 -86 538 -283 952 -616 1298 -301 313 -745 578 -1136 680
-184 48 -285 61 -490 60 -259 0 -460 -36 -711 -128 -135 -49 -433 -198 -579
-290 -67 -41 -157 -88 -203 -105 l-83 -30 -59 30 c-335 169 -625 121 -746
-125 -13 -28 -36 -103 -49 -167 -37 -175 -58 -223 -129 -294 -55 -55 -84 -72
-309 -182 -280 -137 -346 -178 -389 -236 -25 -35 -29 -48 -26 -87 5 -44 3 -47
-29 -64 -82 -45 -163 -172 -171 -271 l-4 -51 -52 -18 c-71 -26 -155 -111 -187
-190 -21 -53 -24 -75 -23 -200 0 -117 5 -159 28 -260 66 -281 152 -431 311
-540 30 -21 55 -39 55 -41 0 -1 -16 -49 -36 -106 -64 -185 -161 -372 -289
-558 -104 -151 -161 -275 -198 -433 -17 -75 -21 -123 -21 -262 0 -168 14 -266
55 -410 12 -40 12 -40 40 95 66 314 178 559 316 692 l38 37 2 -127 c3 -148 23
-299 58 -432 27 -99 95 -250 140 -310 l26 -35 -8 110 c-13 182 -8 430 10 518
9 44 42 136 73 205 92 205 211 507 256 648 l42 131 141 -73 c316 -164 607
-273 897 -335 126 -27 183 -54 236 -114 63 -72 77 -126 74 -280 -7 -367 -85
-823 -182 -1059 -203 -499 -625 -976 -1170 -1320 -229 -146 -400 -228 -861
-416 l-217 -88 -107 114 c-284 304 -484 564 -679 887 -369 612 -605 1289 -695
2002 -123 972 45 1974 479 2860 356 725 886 1364 1534 1848 960 716 2159 1073
3351 997z m387 -1789 c222 -39 388 -101 534 -202 151 -105 253 -247 310 -434
25 -83 28 -104 28 -255 -1 -109 -6 -190 -16 -237 -8 -40 -12 -73 -7 -73 4 0
34 20 68 45 102 77 201 229 237 367 10 35 21 67 25 72 4 4 21 -35 38 -88 121
-377 83 -822 -103 -1219 -24 -54 -42 -97 -39 -97 15 0 141 111 224 197 137
144 206 253 259 411 l29 87 0 -85 c1 -209 -41 -497 -104 -703 -98 -325 -239
-582 -448 -820 l-60 -68 52 21 c229 90 458 261 574 429 17 25 46 73 64 106
l33 60 0 -93 c1 -424 -237 -906 -616 -1246 -293 -264 -683 -489 -1107 -641
-48 -17 -84 -34 -81 -38 11 -11 370 -8 464 3 201 25 399 79 563 154 l78 36
-19 -27 c-80 -110 -289 -314 -472 -460 -375 -297 -984 -653 -1504 -878 l-109
-47 -18 23 c-113 146 -279 419 -340 560 -40 92 -84 227 -77 234 2 3 39 -14 82
-36 42 -23 113 -54 156 -70 80 -29 266 -79 294 -79 10 0 -8 25 -44 61 -155
157 -317 479 -351 698 -25 164 32 371 128 467 90 91 193 99 463 40 392 -86
581 -111 855 -110 170 0 240 4 310 17 264 52 440 140 593 294 63 64 172 211
172 233 0 5 -30 -12 -67 -37 -96 -63 -291 -156 -403 -191 -184 -58 -358 -80
-506 -62 -96 12 -121 18 -97 27 6 2 53 30 104 61 103 64 240 193 278 261 l24
44 -64 -37 c-151 -88 -344 -165 -509 -202 -97 -22 -359 -23 -440 -2 l-55 14
70 36 c235 121 463 313 577 487 55 84 59 101 22 76 -396 -259 -735 -424 -988
-480 -267 -59 -584 51 -873 303 -60 52 -63 53 -63 29 0 -86 53 -251 106 -327
19 -27 29 -50 23 -50 -30 0 -176 58 -271 107 -198 103 -433 307 -582 506 -32
42 -61 77 -63 77 -8 0 7 -117 24 -195 17 -80 53 -162 90 -205 l24 -30 -43 16
c-122 43 -289 155 -386 259 -94 100 -126 152 -124 199 6 106 44 256 72 281 15
14 40 4 251 -103 470 -237 846 -359 1209 -392 352 -33 639 42 1220 315 411
193 566 251 700 262 58 4 89 2 125 -11 47 -15 47 -15 31 3 -26 29 -126 79
-192 96 -70 19 -225 21 -313 5 -132 -24 -249 -73 -468 -198 -422 -239 -841
-305 -1318 -206 -170 36 -280 75 -610 217 -537 230 -691 279 -885 280 -126 0
-239 -19 -355 -60 -77 -28 -195 -85 -237 -114 -14 -11 -28 -19 -31 -19 -8 0
-25 88 -32 170 -8 84 5 175 33 229 23 46 92 83 145 79 20 -2 37 0 37 4 0 39
26 172 41 214 22 58 89 134 118 134 21 0 91 -72 117 -121 10 -19 25 -63 35
-99 l16 -65 42 44 c93 99 88 235 -13 370 -30 40 -33 67 -10 99 19 28 55 46
261 132 194 82 292 135 366 201 73 65 101 122 130 264 40 199 98 287 211 320
71 21 229 15 253 -9 14 -14 -32 -78 -117 -160 -48 -47 -84 -86 -79 -86 18 0
190 43 309 76 192 55 344 116 564 228 363 186 652 284 996 339 80 13 346 6
452 -12z m-3552 -2472 c0 -33 -38 -209 -60 -283 -14 -43 -26 -66 -36 -66 -39
0 -143 145 -169 237 -8 29 46 65 157 104 99 34 108 35 108 8z m320 -198 c-12
-133 -38 -269 -75 -397 -32 -109 -113 -304 -127 -304 -6 0 -8 6 -5 13 51 133
132 453 172 677 15 85 30 162 33 170 12 32 13 -48 2 -159z m4255 -2149 c-11
-11 -101 -86 -200 -167 -437 -361 -902 -776 -1407 -1258 -115 -110 -189 -174
-192 -166 -2 8 -7 28 -11 44 -13 58 -78 221 -132 329 -29 60 -52 110 -51 111
2 1 64 27 138 56 163 64 571 269 805 403 241 139 552 330 825 510 129 85 237
154 240 155 2 1 -4 -7 -15 -17z m-2605 -612 c81 -135 181 -275 261 -369 l64
-73 -130 -133 c-71 -73 -161 -171 -200 -218 -38 -47 -71 -84 -72 -83 -1 1 -25
211 -53 466 -56 513 -78 715 -86 775 -4 33 9 12 74 -110 43 -82 107 -197 142
-255z m482 -781 c66 -129 108 -252 115 -329 5 -60 3 -71 -26 -129 -40 -79
-207 -327 -426 -634 l-170 -239 -5 504 -5 503 25 35 c86 122 396 399 434 387
5 -2 31 -46 58 -98z"/>
<path d="M15311 19780 c-191 -91 -407 -321 -601 -642 -87 -144 -232 -363 -354
-533 -98 -138 -98 -140 32 -106 286 74 536 258 766 565 29 39 96 134 150 211
176 255 232 303 347 292 38 -3 78 -16 120 -38 62 -33 179 -138 232 -209 66
-87 1 91 -73 200 -54 80 -151 175 -222 218 -87 52 -156 72 -250 72 -72 0 -92
-4 -147 -30z"/>
<path d="M15537 19346 c-134 -37 -240 -181 -224 -301 17 -124 136 -225 263
-225 112 1 188 60 252 199 69 150 51 259 -52 310 -59 29 -168 37 -239 17z
m155 -118 c4 -7 8 -16 8 -21 0 -15 -62 -45 -105 -50 -29 -4 -61 -20 -96 -46
-29 -22 -60 -42 -70 -44 -15 -4 -14 0 4 32 32 54 111 129 148 140 41 12 99 6
111 -11z"/>
<path d="M15948 19043 c-24 -28 -35 -53 -78 -184 -61 -187 -125 -268 -235
-299 -93 -26 -170 16 -347 187 -105 102 -133 123 -157 123 -64 0 -65 -79 -4
-202 150 -299 544 -372 765 -140 96 100 148 233 148 374 0 85 -13 134 -40 148
-26 14 -35 13 -52 -7z"/>
<path d="M13555 18674 c-178 -29 -347 -127 -464 -269 -49 -59 -51 -71 -11 -50
62 32 207 86 299 112 132 37 275 39 339 5 61 -32 87 -91 77 -175 -8 -79 -55
-205 -105 -284 -21 -34 -35 -63 -29 -63 17 0 91 41 152 83 117 82 188 202 195
332 4 68 1 89 -18 133 -47 110 -154 170 -314 177 -50 2 -104 1 -121 -1z"/>
<path d="M13459 18377 c-102 -35 -205 -121 -273 -228 l-20 -32 30 7 c102 23
188 35 251 36 147 0 223 36 237 113 21 110 -76 155 -225 104z"/>
<path d="M10763 10288 c-181 -16 -360 -76 -514 -170 -98 -61 -273 -229 -339
-327 -91 -136 -161 -310 -195 -483 -22 -111 -31 -407 -16 -523 48 -369 211
-662 479 -866 336 -255 873 -299 1267 -104 132 65 215 126 318 235 175 183
284 413 328 695 19 120 16 409 -5 530 -20 114 -63 254 -107 353 -92 204 -290
417 -490 526 -199 109 -466 158 -726 134z m322 -434 c205 -48 385 -210 471
-422 51 -128 74 -260 74 -437 0 -209 -27 -339 -102 -494 -43 -89 -62 -116
-132 -186 -143 -143 -283 -198 -496 -199 -221 0 -347 51 -496 199 -78 77 -98
105 -137 185 -83 170 -117 384 -98 607 25 272 101 448 256 590 168 155 418
214 660 157z"/>
<path d="M16095 10289 c-519 -51 -920 -416 -1034 -941 -29 -136 -36 -212 -35
-383 4 -383 122 -690 354 -926 170 -173 344 -267 590 -321 112 -25 382 -30
490 -9 361 69 637 263 814 576 55 96 99 215 134 360 25 102 26 127 27 340 0
248 -9 322 -62 489 -94 302 -308 558 -578 694 -201 101 -454 145 -700 121z
m343 -440 c184 -46 333 -174 428 -364 135 -274 137 -698 2 -980 -137 -287
-439 -437 -768 -381 -294 50 -505 271 -577 606 -25 119 -25 409 0 530 38 176
110 313 220 423 174 170 432 232 695 166z"/>
<path d="M21070 10289 c-523 -46 -935 -423 -1045 -955 -52 -251 -42 -539 26
-782 101 -362 371 -659 710 -783 298 -109 650 -101 944 22 162 67 358 226 467
379 95 134 177 331 215 517 14 69 18 137 17 308 0 238 -13 334 -70 505 -119
355 -399 631 -749 739 -163 50 -331 66 -515 50z m340 -440 c112 -30 193 -80
290 -178 71 -71 94 -103 133 -181 112 -227 134 -561 56 -849 -67 -249 -260
-445 -499 -508 -91 -24 -292 -23 -380 1 -197 54 -350 185 -445 381 -63 130
-87 239 -93 420 -11 341 60 566 234 739 146 147 311 208 539 199 50 -2 124
-12 165 -24z"/>
<path d="M12523 10260 l-148 -5 0 -1260 0 -1260 222 -3 223 -2 2 812 3 813
271 -810 271 -810 195 -3 195 -2 268 800 c148 440 270 798 272 796 2 -2 5
-361 6 -797 l2 -794 223 -3 222 -2 -2 1262 -3 1263 -135 2 c-74 1 -139 3 -145
4 -5 1 -14 0 -20 -1 -5 -1 -72 -1 -148 0 l-138 1 -13 -33 c-7 -18 -141 -425
-297 -904 -156 -480 -286 -871 -287 -869 -2 2 -135 408 -296 902 l-291 898
-152 5 c-83 3 -218 3 -300 0z"/>
<path d="M7590 8995 l0 -1265 230 0 230 0 0 433 0 433 141 139 c119 117 142
136 154 124 7 -8 187 -259 400 -559 213 -300 392 -551 399 -558 9 -9 80 -12
309 -10 l297 3 -356 480 c-196 264 -439 591 -540 727 -101 136 -184 251 -184
255 0 5 239 241 530 527 291 285 528 522 525 527 -3 4 -144 8 -313 8 l-307 1
-525 -536 -525 -535 -5 533 -5 533 -227 3 -228 3 0 -1266z"/>
<path d="M17710 8995 l0 -1267 528 5 c474 5 538 7 637 25 465 86 735 308 869
712 47 144 66 265 73 465 12 373 -57 662 -212 880 -59 84 -189 204 -272 254
-88 52 -214 104 -318 130 -186 48 -254 53 -792 58 l-513 5 0 -1267z m1065 810
c257 -42 387 -126 475 -309 68 -141 100 -317 95 -526 -5 -197 -32 -331 -91
-459 -88 -190 -206 -275 -449 -322 -84 -17 -142 -20 -359 -19 -143 0 -261 2
-263 3 -2 3 -5 1483 -3 1635 0 18 476 17 595 -3z"/>
  </g>
</svg>

